Coordinates
version=1
nRows=8
nColumns=40
inDegrees=yes

Units are S.I. units (second, meters, Newtons, ...)
Angles are in degrees.

endheader
time	pelvis_tilt	pelvis_list	pelvis_rotation	pelvis_tx	pelvis_ty	pelvis_tz	hip_flexion_r	hip_adduction_r	hip_rotation_r	knee_angle_r	knee_angle_r_beta	ankle_angle_r	subtalar_angle_r	mtp_angle_r	hip_flexion_l	hip_adduction_l	hip_rotation_l	knee_angle_l	knee_angle_l_beta	ankle_angle_l	subtalar_angle_l	mtp_angle_l	lumbar_extension	lumbar_bending	lumbar_rotation	arm_flex_r	arm_add_r	arm_rot_r	elbow_flex_r	pro_sup_r	wrist_flex_r	wrist_dev_r	arm_flex_l	arm_add_l	arm_rot_l	elbow_flex_l	pro_sup_l	wrist_flex_l	wrist_dev_l
     30.24800000	     -2.76319049	     -5.98233714	     -1.53058372	      1.12904864	      0.93747553	      0.42582856	     30.34579303	     -4.68280041	     -4.38190396	     50.09931470	     50.09931470	      1.31964797	     -8.25631097	     -1.89928390	     11.76076992	     -7.80127268	    -10.36243368	     20.67134117	     20.67134117	     13.36676497	     -9.02128081	     -1.50332125	    -11.23601203	      5.56729683	      1.27759120	     -3.50577265	    -14.41188363	      4.88094533	     32.12032291	     46.13187102	      0.00000000	      0.00000000	     21.09924599	    -17.51206666	      3.39475347	     55.75082441	     46.07149016	      0.00000000	      0.00000000
     30.26100000	     -2.89690471	     -5.91696514	     -1.90246367	      1.12812157	      0.93738853	      0.42639668	     30.39389866	     -4.60425586	     -4.55280183	     46.70790496	     46.70790496	      1.07309813	     -7.23802233	     -2.26034218	     11.33082907	     -7.75711400	    -10.71706443	     20.29808657	     20.29808657	     13.37573124	     -9.05971648	     -1.82234606	    -11.31895454	      5.47677002	      1.29132932	     -4.46955539	    -14.31543335	      4.41390784	     31.34996717	     46.18050413	      0.00000000	      0.00000000	     21.44453718	    -17.80545010	      2.48137045	     57.91518592	     46.19428593	      0.00000000	      0.00000000
     30.27400000	     -3.12051368	     -5.91441578	     -2.22872534	      1.12719078	      0.93707873	      0.42705716	     30.29112703	     -4.42322790	     -4.86947361	     42.84606863	     42.84606863	      0.45414858	     -6.32718023	     -3.48743921	     11.04545652	     -7.77434082	    -10.92748987	     19.98002517	     19.98002517	     13.28091553	     -9.24916024	     -2.43251483	    -11.26441133	      5.47563403	      0.69002937	     -4.94667917	    -14.08740558	      3.13565798	     30.60520984	     46.27206813	      0.00000000	      0.00000000	     21.07587806	    -18.29363330	      0.75112200	     60.54210524	     46.41533883	      0.00000000	      0.00000000
     30.28700000	     -3.37204360	     -5.88822383	     -2.54137661	      1.12630753	      0.93666151	      0.42787274	     30.11055312	     -4.22105750	     -5.25720361	     38.85831349	     38.85831349	      0.34776850	     -5.02707486	     -2.99079714	     10.84003970	     -7.78939379	    -11.14579784	     19.77638418	     19.77638418	     13.43561595	     -9.32170203	     -2.49716035	    -11.11918948	      5.48084258	      0.70935603	     -5.86099392	    -14.10669950	      3.08693131	     30.24534757	     46.28011729	      0.00000000	      0.00000000	     21.78360470	    -18.52283606	      0.47976403	     61.22825599	     46.45657696	      0.00000000	      0.00000000
     30.30000000	     -3.62759740	     -5.79267149	     -2.86736837	      1.12545219	      0.93612887	      0.42887770	     29.79549766	     -4.03773282	     -5.72651019	     34.68999185	     34.68999185	      0.14972563	     -3.53007359	     -2.40253795	     10.63632181	     -7.74632513	    -11.41051988	     19.58099207	     19.58099207	     13.59086147	     -9.37911491	     -2.58934486	    -10.97539150	      5.35548730	      0.79736030	     -6.73925986	    -14.05906764	      3.01417811	     29.99438192	     46.28582699	      0.00000000	      0.00000000	     22.45031512	    -18.72474865	      0.16288669	     62.08104821	     46.50241604	      0.00000000	      0.00000000
     30.31300000	     -3.65391071	     -5.60258493	     -3.13377093	      1.12499484	      0.93578697	      0.42976216	     29.04781336	     -4.06480752	     -6.66672422	     30.43358269	     30.43358269	     -0.02145057	     -1.19728999	     -2.13127633	     10.10371112	     -7.57387428	    -11.72806568	     19.26080702	     19.26080702	     13.70294578	     -9.28147349	     -2.91116281	    -11.13183122	      5.16196351	      0.94373444	     -7.78614549	    -14.09286198	      2.28089212	     30.25898849	     46.30468411	      0.00000000	      0.00000000	     22.62507127	    -18.68657463	     -0.84808584	     64.35029959	     46.63456894	      0.00000000	      0.00000000
     30.32600000	     -3.84418352	     -5.49843808	     -3.36756147	      1.12453748	      0.93514216	      0.43101608	     28.35955044	     -3.76263237	     -7.32039932	     26.18742231	     26.18742231	     -0.30865149	      0.29413853	     -1.18015330	      9.84711556	     -7.53030406	    -11.90744909	     19.11742534	     19.11742534	     13.87234148	     -9.35197325	     -3.07387997	    -10.98038346	      5.06812478	      0.91293010	     -8.49668830	    -14.06403959	      2.11048128	     30.19208652	     46.30945591	      0.00000000	      0.00000000	     23.08043059	    -18.86398941	     -1.19424807	     65.13461926	     46.68153621	      0.00000000	      0.00000000
     30.33900000	     -3.90708934	     -5.32108669	     -3.58020150	      1.12438312	      0.93458634	      0.43235183	     27.48891073	     -3.55150947	     -8.21185144	     22.23904341	     22.23904341	     -0.52714412	      2.18842165	     -0.02354873	      9.38500177	     -7.39861472	    -12.14921266	     18.87469101	     18.87469101	     14.04057878	     -9.28883749	     -3.30604786	    -10.95389873	      4.86703328	      0.99892402	     -9.23295451	    -14.02303294	      1.86679743	     30.27124196	     46.31190111	      0.00000000	      0.00000000	     23.46380110	    -18.92752016	     -1.64877399	     66.19250409	     46.74127636	      0.00000000	      0.00000000
